{"title":"Naruto 1-220 (2002-2007) English Dubbed on uncut Japanese video","uid":6351912,"size":50422530647,"categoryP":"video","categoryS":"tv_shows","magnet":"?xt=urn:btih:cacb4696322e5ec59eeedcc603128fff3f3dd923&amp;dn=Naruto+1-220+%282002-2007%29+English+Dubbed+on+uncut+Japanese+video+&amp;tr=udp%3A%2F%2Ftracker.openbittorrent.com%3A80&amp;tr=udp%3A%2F%2Fopen.demonii.com%3A1337&amp;tr=udp%3A%2F%2Ftracker.coppersurfer.tk%3A6969&amp;tr=udp%3A%2F%2Fexodus.desync.com%3A6969","seeders":1,"leechers":14,"uploader":"wrongfun","files":220,"time":1304028056,"description":"   General\n      Format : Matroska\n      File size : 219 MiB\n      Duration : 23mn 20s\n      Overall bit rate : 1 309 Kbps\n      Movie name : Naruto (2002-2007) by wrongfunction (Kharkiv, Ukraine) for\n   Video #1\n      ID : 1\n      Format : AVC\n      Format/Info : Advanced Video Codec\n      Codec ID : V_MPEG4/ISO/AVC\n      Duration : 23mn 20s\n      Bit rate : 922 Kbps\n      Width : 720 pixels\n      Height : 544 pixels\n      Display aspect ratio : 4:3\n      Frame rate : 23.976 fps\n      Color space : YUV\n      Chroma subsampling : 4:2:0\n      Bit depth : 8 bits\n      Scan type : Progressive\n      Bits/(Pixel*Frame) : 0.098\n      Stream size : 150 MiB (69%)\n      Title : DVDRip by wrongfunction (Kharkiv, Ukraine) for\n      Language : Japanese\n   Audio #2\n      ID : 2\n      Format : MPEG Audio\n      Format version : Version 1\n      Format profile : Layer 3\n      Codec ID : A_MPEG/L3\n      Codec ID/Hint : MP3\n      Duration : 23mn 20s\n      Bit rate mode : Constant\n      Bit rate : 192 Kbps\n      Channel(s) : 2 channels\n      Sampling rate : 48.0 KHz\n      Stream size : 32.1 MiB (15%)\n      Title : English encoded by wrongfunction (Kharkiv, Ukraine)\n      Language : English\n   Audio #3\n      ID : 3\n      Format : AC-3\n      Format/Info : Audio Coding 3\n      Mode extension : CM (complete main)\n      Codec ID : A_AC3\n      Duration : 23mn 20s\n      Bit rate mode : Constant\n      Bit rate : 192 Kbps\n      Channel(s) : 2 channels\n      Channel positions : Front: L R\n      Sampling rate : 48.0 KHz\n      Bit depth : 16 bits\n      Stream size : 32.1 MiB (15%)\n      Title : Original\n      Language : Japanese","torrent":{"xt":"urn:btih:cacb4696322e5ec59eeedcc603128fff3f3dd923","amp;dn":"Naruto+1-220+%282002-2007%29+English+Dubbed+on+uncut+Japanese+video+","amp;tr":["udp%3A%2F%2Ftracker.openbittorrent.com%3A80","udp%3A%2F%2Fopen.demonii.com%3A1337","udp%3A%2F%2Ftracker.coppersurfer.tk%3A6969","udp%3A%2F%2Fexodus.desync.com%3A6969"],"infoHash":"cacb4696322e5ec59eeedcc603128fff3f3dd923","infoHashBuffer":{"type":"Buffer","data":[202,203,70,150,50,46,94,197,158,238,220,198,3,18,143,255,63,61,217,35]},"announce":[],"urlList":[]}}